<?xml version="1.0" encoding="utf-8"?>
<!-- Generator: Adobe Illustrator 26.0.3, SVG Export Plug-In . SVG Version: 6.00 Build 0)  -->
<svg version="1.1" id="Camada_1" xmlns="http://www.w3.org/2000/svg" xmlns:xlink="http://www.w3.org/1999/xlink" x="0px" y="0px"
	 viewBox="0 0 500 500" style="enable-background:new 0 0 500 500;" xml:space="preserve">
<style type="text/css">
	.st0{fill:#8B5E3C;}
</style>
<path class="st0" d="M141,392.1c21-9.6,41.9-17.4,58.2-35.1c17.1-19.6,35.5-29.5,69.3-37.4c61.6-14.5,106.6-8.1,127,17.8
	c36.4,58.5-22.8,93.4-68,114.8c-24.1,14.6-143.1,40.9-172.9,23.2C150.3,447.3,146,419.8,141,392.1L141,392.1z M110.3,397.1
	c1.9,27.7,5.7,51.4,9.2,86.2C-38.3,537.5-38.3,370.8,110.3,397.1L110.3,397.1z"/>
<path class="st0" d="M272.7,180.1c-14.7-23.9-29.8-47.4-45.2-71.3c10.5-33,117-92.4,144.7-97.5c48-14,115.5-27.3,127.1,40.6
	c1.9,33-27.5,67.6-83.1,97.7c-30.6,16.6-50.8,21.4-76.6,18.1C315.5,165.3,294.8,173.4,272.7,180.1L272.7,180.1z M246.4,196.8
	c-93.5,118.4-204.3-6.2-50.4-70.6C216.4,154.6,229.4,174.8,246.4,196.8L246.4,196.8z"/>
</svg>
